<svg xmlns="http://www.w3.org/2000/svg" xmlns:xlink="http://www.w3.org/1999/xlink" viewBox="0 0 25.1 24" enable-background="new 0 0 25.1 24"><defs><path id="a" d="M0 0h25.1v24H0z"/></defs><clipPath id="b"><use xlink:href="#a" overflow="visible"/></clipPath><path d="M19.7 24c-.2 0-.3 0-.5-.1l-6.7-3.5-6.7 3.5c-.3.2-.7.1-1.1-.1-.3-.2-.5-.6-.4-1l1.3-7.4-5.4-5.3c-.2-.2-.3-.6-.2-1 .1-.4.4-.6.8-.7l7.5-1.1L11.6.5c.3-.7 1.5-.7 1.8 0l3.3 6.8 7.5 1.1c.4.1.7.3.8.7.1.4 0 .8-.3 1l-5.4 5.3 1.3 7.4c.1.4-.1.8-.4 1-.1.1-.3.2-.5.2zm-7.2-5.8c.2 0 .3 0 .5.1l5.3 2.8-1-6c-.1-.3.1-.7.3-.9l4.3-4.2-6-.9c-.3 0-.6-.3-.8-.5l-2.7-5.4-2.5 5.5c-.2.3-.5.5-.8.5l-6 .9 4.3 4.2c.2.2.3.6.3.9l-1 6 5.3-2.8c.2-.1.4-.2.5-.2z" clip-path="url(#b)"/></svg>