<svg xmlns="http://www.w3.org/2000/svg" xmlns:xlink="http://www.w3.org/1999/xlink" viewBox="0 0 19.5 24" enable-background="new 0 0 19.5 24"><defs><path id="a" d="M0 0h19.5v24H0z"/></defs><clipPath id="b"><use xlink:href="#a" overflow="visible"/></clipPath><path clip-path="url(#b)" d="M18.5 24H1c-.6 0-1-.5-1-1 0-.6.4-1 1-1h17.5c.6 0 1 .5 1 1-.1.5-.5 1-1 1M15.3 5.7c-.1.1-.1.1 0 0l-1.4-1.5-.1.1s0-.1.1-.1l1.8-1.8L17 3.9l-1.7 1.8zM5.4 15.8l-2.5 1.1L4 14.3l8.9-9 1.4 1.5-8.9 9zM19.2 3.2L16.4.3c-.4-.4-1-.4-1.4 0l-2.6 2.6L2.4 13c-.1.1-.2.2-.2.3L.1 18.4c-.2.4-.1.8.2 1.1.2.2.4.3.7.3.1 0 .3 0 .4-.1l5-2.2c.1 0 .2-.1.3-.2l9.9-10.1 2.6-2.6c.2-.2.3-.5.3-.7-.1-.3-.2-.5-.3-.7"/><path clip-path="url(#b)" fill="#47B79C" d="M13.8 4.3zm1.5 1.4c-.1.1-.1.1 0 0zm-1.5-1.4zm1.5 1.4c-.1.1-.1.1 0 0z"/></svg>