<svg xmlns="http://www.w3.org/2000/svg" xmlns:xlink="http://www.w3.org/1999/xlink" viewBox="0 0 12 12" enable-background="new 0 0 12 12"><defs><path id="a" d="M0 0h12v12H0z"/></defs><clipPath id="b"><use xlink:href="#a" overflow="visible"/></clipPath><path d="M4.6 9.1C2 9.1 0 7.1 0 4.6 0 2 2 0 4.6 0s4.6 2 4.6 4.6c-.1 2.5-2.1 4.5-4.6 4.5zm0-8.1C2.6 1 1 2.6 1 4.6s1.6 3.6 3.6 3.6 3.6-1.6 3.6-3.6C8.1 2.6 6.5 1 4.6 1zM11.5 12c-.1 0-.3 0-.4-.1L7.4 8.1l.7-.7 3.7 3.7c.2.2.2.5 0 .7 0 .2-.2.2-.3.2z" clip-path="url(#b)"/></svg>